<svg aria-hidden="true" style="position: absolute; width: 0; height: 0; overflow: hidden;" version="1.1"
    xmlns="http://www.w3.org/2000/svg" xmlns:xlink="http://www.w3.org/1999/xlink">
    <defs>
    <symbol id="icon-building-blue" viewBox="0 0 36 32">
<path fill="var(--color1, #d1e7ff)" d="M32.69 11.841v17.492c0 1.178-1.021 2.133-2.28 2.133h-25.084c-1.259 0-2.28-0.955-2.28-2.133 0-16.536-0.002-13.438 0.005-17.492h29.64z"></path>
<path fill="var(--color2, #b9dcff)" d="M32.69 11.841v4.040c0 0.874-0.749 1.598-1.684 1.602-0.010 0-26.259 0-26.278 0-0.934-0.004-1.683-0.728-1.683-1.602 0-1.166-0.001-0.361 0.005-4.040h29.64z"></path>
<path fill="var(--color3, #e8f3ff)" d="M23.64 21.933v9.533h-11.544v-9.533c0-1.178 1.021-2.133 2.28-2.133h6.984c1.259 0 2.28 0.955 2.28 2.133z"></path>
<path fill="var(--color2, #b9dcff)" d="M34.401 11.841c0 2.134-1.85 3.867-4.133 3.867s-4.133-1.731-4.133-3.867c0 2.135-1.851 3.867-4.133 3.867s-4.133-1.731-4.133-3.867c0 2.135-1.851 3.867-4.133 3.867s-4.133-1.731-4.133-3.867c-0.004 2.121-1.87 3.867-4.133 3.867-2.26 0-4.13-1.743-4.133-3.867 0-3.361-0.010-3.154 0.025-3.308 0.034-0.151-0.203 0.385 3.383-7.357 0.181-0.39 0.592-0.643 1.046-0.643h24.158c0.454 0 0.865 0.253 1.046 0.643 3.588 7.748 3.349 7.206 3.383 7.357 0.035 0.154 0.025-0.056 0.025 3.308z"></path>
<path fill="var(--color2, #b9dcff)" d="M34.401 11.841c0 2.134-1.85 3.867-4.133 3.867s-4.133-1.731-4.133-3.867c0 2.135-1.851 3.867-4.133 3.867s-4.133-1.731-4.133-3.867c0 2.135-1.851 3.867-4.133 3.867s-4.133-1.731-4.133-3.867c-0.004 2.121-1.87 3.867-4.133 3.867-2.26 0-4.13-1.743-4.133-3.867-0.006-3.379-0.005-3.176 0.025-3.308h33.016c0.035 0.154 0.025-0.056 0.025 3.308z"></path>
<path fill="var(--color4, #fff)" d="M29.639 3.383c-7.239-0.932-14.544 0.263-20.453 4.429-0.665 0.469-1.476 0.722-2.309 0.722h-5.517c0.034-0.151-0.203 0.385 3.383-7.357 0.181-0.39 0.592-0.643 1.046-0.643h24.158c0.454 0 0.865 0.252 1.046 0.642l0.159 0.343c0.445 0.961-0.404 2.007-1.513 1.865z"></path>
<path fill="var(--color5, #007ffc)" d="M33.26 18.067v11.267c0 1.47-1.279 2.667-2.85 2.667h-25.084c-1.572 0-2.85-1.196-2.85-2.667v-11.267c0-0.294 0.255-0.533 0.57-0.533s0.57 0.239 0.57 0.533v11.267c0 0.882 0.767 1.6 1.71 1.6h6.2v-9c0-1.47 1.279-2.667 2.851-2.667h6.984c1.572 0 2.851 1.196 2.851 2.667v6.867c0 0.294-0.255 0.533-0.57 0.533s-0.57-0.239-0.57-0.533v-6.867c0-0.882-0.767-1.6-1.71-1.6h-6.984c-0.943 0-1.71 0.718-1.71 1.6v9h4.632v-8.4c0-0.294 0.255-0.533 0.57-0.533s0.57 0.239 0.57 0.533v8.4h11.972c0.943 0 1.71-0.718 1.71-1.6v-11.267c0-0.294 0.255-0.533 0.57-0.533s0.57 0.239 0.57 0.533zM4.471 8.533c0 0.295 0.255 0.533 0.57 0.533 31.018 0 29.48 0.052 29.707-0.111 0.118-0.085 0.196-0.208 0.217-0.349 0.032-0.214 0.236 0.313-3.747-8.286-0.090-0.195-0.296-0.321-0.523-0.321h-25.654c-0.227 0-0.433 0.126-0.523 0.321l-3.706 8c-0.066 0.141-0.047-0.083-0.047 3.521 0.004 2.426 2.114 4.399 4.703 4.399 1.78 0 3.333-0.933 4.132-2.304 1.783 3.066 6.481 3.069 8.268 0.002 1.785 3.065 6.481 3.066 8.266 0 0.798 1.37 2.351 2.302 4.133 2.302 2.593 0 4.703-1.974 4.703-4.4 0-0.294-0.255-0.533-0.57-0.533s-0.57 0.239-0.57 0.533c0 1.838-1.598 3.333-3.563 3.333s-3.563-1.495-3.563-3.333c0-0.294-0.255-0.533-0.57-0.533s-0.57 0.239-0.57 0.533c0 1.838-1.598 3.333-3.563 3.333s-3.563-1.495-3.563-3.333c0-0.294-0.255-0.533-0.57-0.533s-0.57 0.239-0.57 0.533c0 1.838-1.598 3.333-3.563 3.333-1.921 0-3.563-1.444-3.563-3.36 0-0.294-0.255-0.533-0.57-0.533s-0.57 0.239-0.57 0.533c0 1.9-1.632 3.36-3.563 3.36-1.962 0-3.56-1.496-3.563-3.333v-3.197l3.51-7.577h24.906l3.211 6.933h-28.491c-0.315 0-0.57 0.239-0.57 0.533z"></path>
</symbol>  

<symbol id="icon-megaphone-blue" viewBox="0 0 36 32">
<path style="fill: var(--color1, #d1e7ff)" d="M30.427 15.115c0.708 1.147-0.141 2.587-1.556 2.638-5.167 0.189-10.435 1.396-15.402 3.773l-1.642 0.887c0 0.007-0.023-0.036 3.976 6.469 0.367 0.595 0.149 1.355-0.486 1.699l-1.295 0.699c-0.636 0.343-1.449 0.14-1.816-0.456l-3.988-6.462-0.647 0.35c-1.272 0.686-2.898 0.279-3.632-0.911l-2.991-4.846c-0.734-1.19-0.298-2.711 0.974-3.398l5.9-3.187c4.509-2.729 8.33-6.341 11.194-10.591 0.755-1.121 2.513-1.088 3.22 0.059l2.559 4.147c1.47-0.794 3.351-0.322 4.2 1.053s0.345 3.134-1.126 3.928l2.56 4.147z"></path>
<path style="fill: var(--color1, #d1e7ff)" d="M28.993 7.039c0.849 1.376 0.345 3.134-1.126 3.928l-3.074-4.982c1.47-0.794 3.351-0.322 4.2 1.053z"></path>
<path style="fill: var(--color3, #e8f3ff)" d="M22.234 1.838c0.353 0.573 0.331 1.283-0.060 1.834-3.153 4.444-7.378 8.46-12.546 11.588l-6.913 3.734c-0.475 0.257-0.85 0.613-1.113 1.023l-0.655-1.061c-0.734-1.19-0.298-2.711 0.974-3.398l5.9-3.187c4.509-2.729 8.33-6.341 11.194-10.591 0.755-1.121 2.513-1.088 3.22 0.059z"></path>
<path style="fill: var(--color2, #b9dcff)" d="M7.819 12.371l5.65 9.155c-1.132 0.611-4.769 2.575-5.9 3.187-1.272 0.686-2.898 0.279-3.632-0.911l-2.991-4.846c-0.734-1.19-0.298-2.711 0.974-3.398l5.9-3.187z"></path>
<path style="fill: var(--color1, #d1e7ff)" d="M9.609 15.271c-7.507 4.054-7.010 3.772-7.252 3.949-0.456 0.332-1.122 0.205-1.411-0.263-0.734-1.19-0.298-2.711 0.974-3.398l5.9-3.187 1.789 2.899z"></path>
<path style="fill: var(--color2, #b9dcff)" d="M12.902 24.163c-2.1 1.138-0.555 0.3-3.607 1.948l-1.079-1.748 3.61-1.949 1.075 1.749z"></path>
<path style="fill: var(--color2, #b9dcff)" d="M28.809 10.177c-0.244 0.313-0.56 0.584-0.942 0.79l-3.074-4.981c0.382-0.206 0.791-0.327 1.203-0.368 0.155 0.251 2.679 4.341 2.814 4.56z"></path>
<path style="fill: var(--color5, #007ffc)" d="M28.65 11.13c2.305-1.761 1.508-5.243-1.371-5.965-0.752-0.189-1.531-0.149-2.245 0.105l-2.288-3.708c-0.931-1.509-3.24-1.549-4.232-0.078-2.814 4.176-6.563 7.728-11.015 10.423-0.253 0.153-0.347 0.47-0.197 0.727 0.024 0.041 3.814 6.182 3.839 6.222 0.163 0.264 0.524 0.355 0.807 0.202s0.379-0.49 0.216-0.755l-3.554-5.759c4.244-2.654 8.003-6.169 10.903-10.472 0.519-0.77 1.724-0.746 2.21 0.041l8.193 13.276c0.486 0.788-0.097 1.775-1.067 1.811-5.444 0.198-10.774 1.501-15.648 3.833-0.021 0.010-5.546 2.995-5.927 3.2-0.988 0.534-2.255 0.216-2.825-0.708l-2.991-4.847c-0.57-0.924-0.231-2.11 0.757-2.643l3.6-1.944c0.282-0.153 0.379-0.49 0.216-0.755s-0.524-0.355-0.807-0.202l-3.6 1.944c-1.552 0.838-2.085 2.701-1.189 4.152l2.991 4.847c0.896 1.452 2.887 1.951 4.439 1.113l0.136-0.073 3.693 5.984c0.53 0.859 1.703 1.154 2.623 0.657l1.295-0.7c0.919-0.496 1.233-1.594 0.703-2.453l-2.617-4.241c-0.163-0.264-0.524-0.355-0.807-0.202s-0.379 0.49-0.216 0.755l2.617 4.241c0.204 0.331 0.083 0.753-0.27 0.944l-1.295 0.7c-0.354 0.191-0.805 0.078-1.009-0.253l-3.693-5.984 4.728-2.554c4.627-2.211 9.774-3.511 15.143-3.706 1.861-0.068 2.974-1.961 2.044-3.467l-2.288-3.708zM28.481 7.315c0.583 0.945 0.374 2.117-0.433 2.84l-2.413-3.909c1.058-0.29 2.254 0.11 2.846 1.069zM34.257 4.859l-1.528 0.825c-0.283 0.153-0.644 0.062-0.807-0.202s-0.066-0.602 0.216-0.755l1.528-0.825c0.283-0.153 0.644-0.062 0.807 0.202s0.066 0.602-0.216 0.755zM27.686 1.71l0.373-1.301c0.084-0.295 0.408-0.469 0.723-0.391s0.502 0.382 0.418 0.677l-0.373 1.301c-0.084 0.294-0.407 0.47-0.723 0.391-0.315-0.079-0.502-0.382-0.418-0.677zM35.409 10.758c-0.071 0.247-0.309 0.409-0.57 0.409-0.107 0-0.032 0.011-1.544-0.367-0.315-0.079-0.502-0.382-0.418-0.677s0.408-0.469 0.723-0.391l1.39 0.348c0.315 0.079 0.502 0.382 0.418 0.677z"></path>
</symbol>

<symbol id="icon-phone-blue" viewBox="0 0 22 32">
<path fill="var(--color1, #d1e7ff)" d="M18.838 0.533c1.259 0 2.28 0.955 2.28 2.133v26.667c0 1.178-1.021 2.133-2.28 2.133h-15.678c-1.259 0-2.28-0.955-2.28-2.133v-26.667c0-1.178 1.021-2.133 2.28-2.133h15.678z"></path>
<path fill="var(--color2, #b9dcff)" d="M14.585 11.981c0.546 0 1.003 0.385 1.063 0.892l0.763 6.552c0.069 0.591-0.426 1.108-1.063 1.108h-8.697c-0.636 0-1.132-0.517-1.063-1.108l0.763-6.552c0.059-0.507 0.517-0.892 1.063-0.892h7.172z"></path>
<path fill="var(--color3, #e8f3ff)" d="M18.946 0.536c1.834 0.080 1.737 2.664-0.099 2.664h-7.42c-4.251 0-7.696 3.224-7.696 7.2v21.067h-0.57c-1.259 0-2.28-0.955-2.28-2.133v-26.667c0-1.178 1.021-2.133 2.28-2.133 0.103 0 15.702-0.001 15.786 0.002z"></path>
<path fill="var(--color2, #b9dcff)" d="M21.118 26.8v2.533c0 1.178-1.021 2.133-2.28 2.133h-15.678c-1.259 0-2.28-0.955-2.28-2.133v-2.533h20.238z"></path>
<path fill="var(--color1, #d1e7ff)" d="M3.73 26.8v2.541c0 1.737-2.85 1.826-2.85-0.008v-2.533h2.85z"></path>
<path fill="var(--color1, #d1e7ff)" d="M14.585 13.981c-3.453 0-6.276 2.432-6.64 5.565-0.065 0.562-0.572 0.987-1.176 0.987h-0.118c-0.636 0-1.132-0.517-1.063-1.108l0.763-6.552c0.059-0.507 0.517-0.892 1.063-0.892h7.172c0.545 0 1.003 0.384 1.063 0.892 0.069 0.593-0.427 1.108-1.062 1.108z"></path>
<path fill="var(--color5, #007ffc)" d="M18.838 0h-15.678c-1.572 0-2.85 1.196-2.85 2.667v26.667c0 1.47 1.279 2.667 2.85 2.667h15.678c1.572 0 2.851-1.196 2.851-2.667v-26.667c0-1.47-1.279-2.667-2.851-2.667zM18.838 30.933h-15.678c-0.943 0-1.71-0.718-1.71-1.6v-26.667c0-0.882 0.767-1.6 1.71-1.6h15.678c0.943 0 1.71 0.718 1.71 1.6v23.6h-16.319c-0.315 0-0.57 0.239-0.57 0.533s0.255 0.533 0.57 0.533h16.319v2c0 0.882-0.767 1.6-1.71 1.6zM12.282 29c0 0.295-0.255 0.533-0.57 0.533h-1.425c-0.315 0-0.57-0.239-0.57-0.533s0.255-0.533 0.57-0.533h1.425c0.315 0 0.57 0.239 0.57 0.533zM6.65 21.067h8.697c0.975 0 1.735-0.793 1.629-1.699l-0.762-6.552c-0.091-0.779-0.791-1.367-1.629-1.367h-0.528v-0.987c-0-1.578-1.372-2.861-3.058-2.861s-3.058 1.283-3.058 2.861v0.987h-0.528c-0.838 0-1.539 0.588-1.629 1.367l-0.762 6.552c-0.106 0.907 0.655 1.699 1.629 1.699zM6.155 19.483l0.762-6.552c0.028-0.237 0.241-0.416 0.496-0.416h0.528v0.832c0 0.295 0.255 0.533 0.57 0.533s0.57-0.239 0.57-0.533v-2.886c0-0.989 0.86-1.794 1.918-1.794s1.918 0.805 1.918 1.794v0.987h-2.466c-0.315 0-0.57 0.239-0.57 0.533s0.255 0.533 0.57 0.533h2.466v0.832c0 0.295 0.255 0.533 0.57 0.533s0.57-0.239 0.57-0.533v-0.832h0.528c0.255 0 0.468 0.179 0.496 0.416l0.762 6.552c0.032 0.276-0.197 0.517-0.496 0.517h-8.697c-0.297 0-0.528-0.24-0.496-0.517z"></path>
</symbol>

    <symbol id="icon-dribbble" viewBox="0 0 32 32">
    <path d="M15.5 0c-8.547 0-15.5 6.953-15.5 15.5s6.953 15.5 15.5 15.5c8.547 0 15.5-6.953 15.5-15.5s-6.953-15.5-15.5-15.5zM25.748 7.148c1.844 2.253 2.96 5.122 2.99 8.247-0.436-0.092-4.814-0.98-9.219-0.426-0.36-0.878-0.699-1.65-1.164-2.601 4.895-1.999 7.114-4.843 7.393-5.22zM24.276 5.617c-0.238 0.339-2.231 3.018-6.939 4.782-2.169-3.986-4.574-7.261-4.94-7.75 4.198-1.012 8.623 0.079 11.879 2.968zM9.871 3.539c0.349 0.479 2.715 3.757 4.909 7.657-6.193 1.645-11.648 1.621-12.24 1.613 0.859-4.108 3.627-7.523 7.331-9.27zM2.261 15.52c0-0.135 0.003-0.27 0.007-0.405 0.579 0.012 6.995 0.095 13.607-1.884 0.379 0.742 0.741 1.495 1.073 2.247-4.787 1.348-9.137 5.22-11.283 8.894-2.115-2.347-3.404-5.452-3.404-8.852zM7.374 25.965c1.383-2.827 5.136-6.476 10.474-8.297 1.859 4.83 2.628 8.878 2.824 10.040-4.257 1.813-9.376 1.316-13.298-1.743zM22.897 26.495c-0.136-0.805-0.84-4.681-2.572-9.44 4.149-0.664 7.794 0.423 8.247 0.566-0.59 3.684-2.705 6.865-5.675 8.874z">
    </path>
    </symbol>
    <symbol id="icon-facebook" viewBox="0 0 32 32">
    <path d="M23.317 17.688l0.873-5.691h-5.461v-3.693c0-1.557 0.763-3.075 3.209-3.075h2.483v-4.845c0 0-2.253-0.384-4.407-0.384-4.497 0-7.436 2.726-7.436 7.66v4.337h-4.999v5.691h4.999v13.758h6.152v-13.758h4.587z"></path>
    </symbol>
    <symbol id="icon-github" viewBox="0 0 32 32">
    <path d="M10.703 25.123c0 0.129-0.148 0.232-0.335 0.232-0.213 0.019-0.361-0.084-0.361-0.232 0-0.129 0.148-0.232 0.335-0.232 0.194-0.019 0.361 0.084 0.361 0.232zM8.697 24.832c-0.045 0.129 0.084 0.277 0.277 0.316 0.168 0.065 0.361 0 0.4-0.129s-0.084-0.277-0.277-0.336c-0.168-0.045-0.355 0.019-0.4 0.148zM11.548 24.723c-0.187 0.045-0.316 0.168-0.297 0.316 0.019 0.129 0.187 0.213 0.381 0.168 0.187-0.045 0.316-0.168 0.297-0.297-0.019-0.123-0.194-0.206-0.381-0.187zM15.794 0c-8.948 0-15.794 6.794-15.794 15.742 0 7.155 4.503 13.277 10.935 15.432 0.826 0.148 1.116-0.361 1.116-0.781 0-0.4-0.019-2.607-0.019-3.961 0 0-4.516 0.968-5.465-1.923 0 0-0.736-1.877-1.794-2.361 0 0-1.477-1.013 0.103-0.993 0 0 1.606 0.129 2.49 1.664 1.413 2.49 3.781 1.774 4.703 1.348 0.148-1.032 0.568-1.748 1.032-2.174-3.606-0.4-7.245-0.923-7.245-7.129 0-1.774 0.49-2.665 1.523-3.8-0.168-0.419-0.716-2.148 0.168-4.381 1.348-0.419 4.452 1.742 4.452 1.742 1.29-0.361 2.677-0.548 4.052-0.548s2.761 0.187 4.052 0.548c0 0 3.103-2.168 4.452-1.742 0.884 2.239 0.336 3.961 0.168 4.381 1.032 1.142 1.664 2.032 1.664 3.8 0 6.226-3.8 6.723-7.406 7.129 0.594 0.51 1.097 1.477 1.097 2.993 0 2.174-0.019 4.865-0.019 5.394 0 0.419 0.297 0.929 1.116 0.781 6.452-2.142 10.826-8.264 10.826-15.419 0-8.948-7.258-15.742-16.206-15.742zM6.271 22.252c-0.084 0.064-0.064 0.213 0.045 0.335 0.103 0.103 0.252 0.148 0.335 0.065 0.084-0.065 0.064-0.213-0.045-0.336-0.103-0.103-0.252-0.148-0.335-0.064zM5.574 21.729c-0.045 0.084 0.019 0.187 0.148 0.252 0.103 0.064 0.232 0.045 0.277-0.045 0.045-0.084-0.019-0.187-0.148-0.252-0.129-0.039-0.232-0.019-0.277 0.045zM7.665 24.026c-0.103 0.084-0.064 0.277 0.084 0.4 0.148 0.148 0.336 0.168 0.419 0.065 0.084-0.084 0.045-0.277-0.084-0.4-0.142-0.148-0.335-0.168-0.419-0.065zM6.929 23.077c-0.103 0.064-0.103 0.232 0 0.381s0.277 0.213 0.361 0.148c0.103-0.084 0.103-0.252 0-0.4-0.090-0.148-0.258-0.213-0.361-0.129z"></path>
    </symbol>
    <symbol id="icon-instagram" viewBox="0 0 32 32">
    <path d="M15.25 7.427c-4.327 0-7.816 3.49-7.816 7.816s3.49 7.816 7.816 7.816 7.816-3.49 7.816-7.816c0-4.326-3.49-7.816-7.816-7.816zM15.25 20.325c-2.796 0-5.082-2.279-5.082-5.082s2.279-5.082 5.082-5.082 5.082 2.279 5.082 5.082c0 2.803-2.286 5.082-5.082 5.082zM25.209 7.107c0 1.014-0.816 1.823-1.823 1.823-1.014 0-1.823-0.816-1.823-1.823s0.816-1.823 1.823-1.823c1.007 0 1.823 0.816 1.823 1.823zM30.386 8.957c-0.116-2.442-0.673-4.605-2.463-6.388-1.782-1.782-3.945-2.34-6.388-2.463-2.517-0.143-10.061-0.143-12.578 0-2.435 0.116-4.599 0.673-6.388 2.456s-2.34 3.946-2.463 6.388c-0.143 2.517-0.143 10.061 0 12.578 0.116 2.442 0.673 4.606 2.463 6.388s3.946 2.34 6.388 2.463c2.517 0.143 10.061 0.143 12.578 0 2.442-0.116 4.605-0.674 6.388-2.463 1.782-1.782 2.34-3.946 2.463-6.388 0.143-2.517 0.143-10.054 0-12.571zM27.134 24.23c-0.531 1.333-1.558 2.361-2.898 2.898-2.007 0.796-6.769 0.612-8.986 0.612s-6.986 0.177-8.986-0.612c-1.333-0.531-2.361-1.558-2.898-2.898-0.796-2.007-0.612-6.769-0.612-8.986s-0.177-6.986 0.612-8.986c0.531-1.333 1.558-2.361 2.898-2.898 2.007-0.796 6.769-0.612 8.986-0.612s6.986-0.177 8.986 0.612c1.333 0.531 2.361 1.558 2.898 2.898 0.796 2.007 0.612 6.769 0.612 8.986s0.184 6.986-0.612 8.986z"></path>
    </symbol>
    <symbol id="icon-twitter" viewBox="0 0 32 32">
    <path d="M28.711 8.877c0.020 0.284 0.020 0.569 0.020 0.853 0 8.67-6.599 18.66-18.66 18.66-3.716 0-7.168-1.076-10.071-2.944 0.528 0.061 1.036 0.081 1.584 0.081 3.066 0 5.888-1.036 8.142-2.802-2.883-0.061-5.3-1.949-6.132-4.548 0.406 0.061 0.812 0.102 1.239 0.102 0.589 0 1.178-0.081 1.726-0.223-3.005-0.609-5.259-3.249-5.259-6.437v-0.081c0.873 0.487 1.888 0.792 2.964 0.832-1.766-1.178-2.924-3.188-2.924-5.462 0-1.218 0.325-2.335 0.893-3.31 3.228 3.98 8.081 6.579 13.523 6.863-0.101-0.487-0.162-0.995-0.162-1.502 0-3.614 2.924-6.558 6.558-6.558 1.888 0 3.594 0.792 4.792 2.071 1.482-0.284 2.904-0.833 4.163-1.584-0.487 1.523-1.523 2.802-2.883 3.614 1.32-0.142 2.599-0.508 3.777-1.015-0.893 1.299-2.010 2.457-3.289 3.391z"></path>
    </symbol>
    </defs>
</svg>