<svg aria-hidden="true" style="position: absolute; width: 0; height: 0; overflow: hidden;" version="1.1" xmlns="http://www.w3.org/2000/svg" xmlns:xlink="http://www.w3.org/1999/xlink">
<defs>
<symbol id="icon-facebook" viewBox="0 0 19 32">
<path  d="M16.016 18l0.889-5.791h-5.557v-3.758c0-1.584 0.776-3.129 3.265-3.129h2.526v-4.931c0 0-2.293-0.391-4.484-0.391-4.576 0-7.567 2.774-7.567 7.795v4.414h-5.087v5.791h5.087v14h6.261v-14h4.668z"></path>
</symbol>
<symbol id="icon-google" viewBox="0 0 53 32">
<path  d="M31.105 13.708c0.153 0.808 0.262 1.615 0.262 2.663 0 9.146-6.134 15.629-15.367 15.629-8.84 0-16-7.16-16-16s7.16-16 16-16c4.322 0 7.924 1.572 10.718 4.191l-4.344 4.169c-1.179-1.135-3.252-2.467-6.374-2.467-5.457 0-9.91 4.518-9.91 10.106s4.453 10.106 9.91 10.106c6.33 0 8.709-4.562 9.080-6.898h-9.080v-5.501l15.105 0zM46.555 14.244v-4.644h-4.667v4.644h-4.644v4.667h4.644v4.644h4.667v-4.644h4.645v-4.667h-4.645z"></path>
</symbol>
<symbol id="icon-linkedin" viewBox="0 0 32 32">
<path d="M7.163 32h-6.634v-21.365h6.634v21.365zM3.842 7.721c-2.122 0-3.842-1.757-3.842-3.879 0-1.019 0.405-1.996 1.125-2.717s1.698-1.125 2.717-1.125c1.019 0 1.996 0.405 2.717 1.125s1.125 1.698 1.125 2.717c0 2.121-1.721 3.879-3.842 3.879zM31.994 32h-6.62v-10.4c0-2.479-0.050-5.657-3.449-5.657-3.449 0-3.978 2.693-3.978 5.479v10.579h-6.627v-21.365h6.363v2.914h0.093c0.886-1.679 3.049-3.45 6.277-3.45 6.714 0 7.949 4.422 7.949 10.165v11.736h-0.007z"></path>
</symbol>
<symbol id="icon-twitter" viewBox="0 0 40 32">
<path  d="M35.35 7.975c0.025 0.35 0.025 0.7 0.025 1.050 0 10.675-8.125 22.975-22.975 22.975-4.575 0-8.825-1.325-12.4-3.625 0.65 0.075 1.275 0.1 1.95 0.1 3.775 0 7.25-1.275 10.025-3.45-3.55-0.075-6.525-2.4-7.55-5.6 0.5 0.075 1 0.125 1.525 0.125 0.725 0 1.45-0.1 2.125-0.275-3.7-0.75-6.475-4-6.475-7.925v-0.1c1.075 0.6 2.325 0.975 3.65 1.025-2.175-1.45-3.6-3.925-3.6-6.725 0-1.5 0.4-2.875 1.1-4.075 3.975 4.9 9.95 8.1 16.65 8.45-0.125-0.6-0.2-1.225-0.2-1.85 0-4.45 3.6-8.075 8.075-8.075 2.325 0 4.425 0.975 5.9 2.55 1.825-0.35 3.575-1.025 5.125-1.95-0.6 1.875-1.875 3.45-3.55 4.45 1.625-0.175 3.2-0.625 4.65-1.25-1.1 1.6-2.475 3.025-4.050 4.175z"></path>
</symbol>
</defs>
</svg>
